<svg xmlns="http://www.w3.org/2000/svg" xmlns:xlink="http://www.w3.org/1999/xlink" width="500" zoomAndPan="magnify" viewBox="0 0 375 374.999991" height="500" preserveAspectRatio="xMidYMid meet" version="1.0"><defs><g/><clipPath id="8978b7e7e3"><path d="M 72.996094 144.023438 L 121.746094 144.023438 L 121.746094 231.023438 L 72.996094 231.023438 Z M 72.996094 144.023438 " clip-rule="nonzero"/></clipPath><clipPath id="6f8c4c5a2b"><rect x="0" width="175" y="0" height="97"/></clipPath></defs><g clip-path="url(#8978b7e7e3)"><path fill="#000000" d="M 121.742188 198.019531 L 121.742188 202.304688 C 105.804688 202.304688 92.835938 215.183594 92.835938 231.015625 L 88.527344 231.015625 C 88.527344 212.820312 103.425781 198.019531 121.742188 198.019531 Z M 80.757812 231.011719 L 85.074219 231.011719 C 85.074219 210.929688 101.523438 194.589844 121.742188 194.589844 L 121.742188 190.304688 C 99.144531 190.304688 80.757812 208.566406 80.757812 231.011719 Z M 121.742188 148.3125 L 121.742188 144.027344 C 94.863281 144.027344 72.996094 165.75 72.996094 192.449219 L 72.996094 231.011719 L 77.308594 231.011719 C 77.308594 206.675781 97.242188 186.875 121.746094 186.875 L 121.746094 182.589844 C 110.9375 182.589844 100.945312 186.105469 92.851562 192.042969 C 93.070312 176.398438 105.945312 163.738281 121.746094 163.738281 L 121.746094 159.453125 C 103.429688 159.453125 88.527344 174.257812 88.527344 192.449219 L 88.527344 195.621094 C 87.316406 196.742188 86.167969 197.925781 85.074219 199.160156 L 85.074219 192.449219 C 85.074219 172.363281 101.523438 156.027344 121.742188 156.027344 L 121.742188 151.738281 C 99.144531 151.738281 80.757812 170.003906 80.757812 192.449219 L 80.757812 204.84375 C 79.460938 206.847656 78.304688 208.949219 77.304688 211.136719 L 77.304688 192.449219 C 77.308594 168.113281 97.242188 148.3125 121.742188 148.3125 Z M 121.742188 148.3125 " fill-opacity="1" fill-rule="nonzero"/></g><g transform="matrix(1, 0, 0, 1, 132, 139)"><g clip-path="url(#6f8c4c5a2b)"><g fill="#000000" fill-opacity="1"><g transform="translate(0.241373, 26.088785)"><g><path d="M 1.109375 -19.28125 C 1.109375 -19.46875 1.210938 -19.5625 1.421875 -19.5625 L 15.609375 -19.5625 C 15.828125 -19.5625 15.9375 -19.46875 15.9375 -19.28125 L 15.9375 -17.90625 C 15.9375 -17.800781 15.90625 -17.726562 15.84375 -17.6875 C 15.789062 -17.65625 15.710938 -17.640625 15.609375 -17.640625 L 10.265625 -17.640625 C 10.160156 -17.640625 10.082031 -17.625 10.03125 -17.59375 C 9.988281 -17.5625 9.96875 -17.488281 9.96875 -17.375 L 9.96875 -0.34375 C 9.96875 -0.113281 9.863281 0 9.65625 0 L 7.75 0 C 7.539062 0 7.4375 -0.113281 7.4375 -0.34375 L 7.4375 -17.359375 C 7.4375 -17.484375 7.414062 -17.5625 7.375 -17.59375 C 7.34375 -17.625 7.273438 -17.640625 7.171875 -17.640625 L 1.421875 -17.640625 C 1.316406 -17.640625 1.238281 -17.65625 1.1875 -17.6875 C 1.132812 -17.726562 1.109375 -17.800781 1.109375 -17.90625 Z M 1.109375 -19.28125 "/></g></g></g><g fill="#000000" fill-opacity="1"><g transform="translate(22.918568, 26.088785)"><g><path d="M 5.296875 -9.15625 C 5.234375 -9.15625 5.179688 -9.128906 5.140625 -9.078125 C 5.109375 -9.035156 5.09375 -8.988281 5.09375 -8.9375 L 5.09375 -0.390625 C 5.09375 -0.253906 5.054688 -0.15625 4.984375 -0.09375 C 4.910156 -0.03125 4.796875 0 4.640625 0 L 2.921875 0 C 2.785156 0 2.691406 -0.0234375 2.640625 -0.078125 C 2.585938 -0.128906 2.5625 -0.226562 2.5625 -0.375 L 2.5625 -19.203125 C 2.5625 -19.441406 2.664062 -19.5625 2.875 -19.5625 L 4.78125 -19.5625 C 4.988281 -19.5625 5.09375 -19.453125 5.09375 -19.234375 L 5.09375 -11.46875 C 5.09375 -11.34375 5.113281 -11.257812 5.15625 -11.21875 C 5.195312 -11.175781 5.269531 -11.15625 5.375 -11.15625 L 14.03125 -11.15625 C 14.207031 -11.15625 14.296875 -11.257812 14.296875 -11.46875 L 14.296875 -19.25 C 14.296875 -19.457031 14.390625 -19.5625 14.578125 -19.5625 L 16.515625 -19.5625 C 16.640625 -19.5625 16.722656 -19.535156 16.765625 -19.484375 C 16.804688 -19.429688 16.828125 -19.335938 16.828125 -19.203125 L 16.828125 -0.375 C 16.828125 -0.125 16.703125 0 16.453125 0 L 14.75 0 C 14.582031 0 14.460938 -0.03125 14.390625 -0.09375 C 14.328125 -0.15625 14.296875 -0.253906 14.296875 -0.390625 L 14.296875 -8.921875 C 14.296875 -9.078125 14.21875 -9.15625 14.0625 -9.15625 Z M 5.296875 -9.15625 "/></g></g></g><g fill="#000000" fill-opacity="1"><g transform="translate(47.968752, 26.088785)"><g><path d="M 2.5625 -19.203125 C 2.5625 -19.335938 2.582031 -19.429688 2.625 -19.484375 C 2.664062 -19.535156 2.75 -19.5625 2.875 -19.5625 L 14.71875 -19.5625 C 14.894531 -19.5625 14.984375 -19.46875 14.984375 -19.28125 L 14.984375 -17.9375 C 14.984375 -17.726562 14.867188 -17.625 14.640625 -17.625 L 5.4375 -17.625 C 5.289062 -17.625 5.195312 -17.597656 5.15625 -17.546875 C 5.113281 -17.503906 5.09375 -17.421875 5.09375 -17.296875 L 5.09375 -11.125 C 5.09375 -10.9375 5.1875 -10.84375 5.375 -10.84375 L 12.21875 -10.84375 C 12.40625 -10.84375 12.5 -10.742188 12.5 -10.546875 L 12.5 -9.15625 C 12.5 -9 12.40625 -8.921875 12.21875 -8.921875 L 5.375 -8.921875 C 5.1875 -8.921875 5.09375 -8.820312 5.09375 -8.625 L 5.09375 -2.21875 C 5.09375 -2.113281 5.109375 -2.039062 5.140625 -2 C 5.179688 -1.96875 5.253906 -1.953125 5.359375 -1.953125 L 15.03125 -1.953125 C 15.132812 -1.953125 15.207031 -1.929688 15.25 -1.890625 C 15.300781 -1.859375 15.328125 -1.789062 15.328125 -1.6875 L 15.328125 -0.296875 C 15.328125 -0.0976562 15.226562 0 15.03125 0 L 2.921875 0 C 2.785156 0 2.691406 -0.0234375 2.640625 -0.078125 C 2.585938 -0.128906 2.5625 -0.226562 2.5625 -0.375 Z M 2.5625 -19.203125 "/></g></g></g><g fill="#000000" fill-opacity="1"><g transform="translate(0.241373, 57.900411)"><g><path d="M 17.171875 -19.5625 C 17.296875 -19.5625 17.378906 -19.519531 17.421875 -19.4375 C 17.460938 -19.363281 17.46875 -19.285156 17.4375 -19.203125 L 10.765625 -0.390625 C 10.710938 -0.253906 10.640625 -0.15625 10.546875 -0.09375 C 10.460938 -0.03125 10.34375 0 10.1875 0 L 8.390625 0 C 8.035156 0 7.820312 -0.125 7.75 -0.375 L 1.21875 -19.171875 C 1.195312 -19.210938 1.1875 -19.257812 1.1875 -19.3125 C 1.1875 -19.476562 1.289062 -19.5625 1.5 -19.5625 L 3.328125 -19.5625 C 3.535156 -19.5625 3.679688 -19.457031 3.765625 -19.25 L 9.25 -3.265625 C 9.3125 -3.109375 9.375 -3.03125 9.4375 -3.03125 C 9.507812 -3.03125 9.582031 -3.117188 9.65625 -3.296875 L 15.21875 -19.28125 C 15.269531 -19.46875 15.398438 -19.5625 15.609375 -19.5625 Z M 17.171875 -19.5625 "/></g></g></g><g fill="#000000" fill-opacity="1"><g transform="translate(24.553297, 57.900411)"><g><path d="M 2.5625 -19.203125 C 2.5625 -19.335938 2.582031 -19.429688 2.625 -19.484375 C 2.664062 -19.535156 2.75 -19.5625 2.875 -19.5625 L 14.71875 -19.5625 C 14.894531 -19.5625 14.984375 -19.46875 14.984375 -19.28125 L 14.984375 -17.9375 C 14.984375 -17.726562 14.867188 -17.625 14.640625 -17.625 L 5.4375 -17.625 C 5.289062 -17.625 5.195312 -17.597656 5.15625 -17.546875 C 5.113281 -17.503906 5.09375 -17.421875 5.09375 -17.296875 L 5.09375 -11.125 C 5.09375 -10.9375 5.1875 -10.84375 5.375 -10.84375 L 12.21875 -10.84375 C 12.40625 -10.84375 12.5 -10.742188 12.5 -10.546875 L 12.5 -9.15625 C 12.5 -9 12.40625 -8.921875 12.21875 -8.921875 L 5.375 -8.921875 C 5.1875 -8.921875 5.09375 -8.820312 5.09375 -8.625 L 5.09375 -2.21875 C 5.09375 -2.113281 5.109375 -2.039062 5.140625 -2 C 5.179688 -1.96875 5.253906 -1.953125 5.359375 -1.953125 L 15.03125 -1.953125 C 15.132812 -1.953125 15.207031 -1.929688 15.25 -1.890625 C 15.300781 -1.859375 15.328125 -1.789062 15.328125 -1.6875 L 15.328125 -0.296875 C 15.328125 -0.0976562 15.226562 0 15.03125 0 L 2.921875 0 C 2.785156 0 2.691406 -0.0234375 2.640625 -0.078125 C 2.585938 -0.128906 2.5625 -0.226562 2.5625 -0.375 Z M 2.5625 -19.203125 "/></g></g></g><g fill="#000000" fill-opacity="1"><g transform="translate(46.782263, 57.900411)"><g><path d="M 16.453125 -19.5625 C 16.578125 -19.5625 16.660156 -19.523438 16.703125 -19.453125 C 16.753906 -19.390625 16.742188 -19.304688 16.671875 -19.203125 L 10.390625 -8.703125 C 10.316406 -8.597656 10.269531 -8.488281 10.25 -8.375 C 10.238281 -8.257812 10.234375 -8.078125 10.234375 -7.828125 L 10.234375 -0.453125 C 10.234375 -0.296875 10.191406 -0.179688 10.109375 -0.109375 C 10.035156 -0.0351562 9.910156 0 9.734375 0 L 8.15625 0 C 7.875 0 7.734375 -0.128906 7.734375 -0.390625 L 7.734375 -7.734375 C 7.734375 -7.890625 7.71875 -8.007812 7.6875 -8.09375 C 7.664062 -8.1875 7.609375 -8.300781 7.515625 -8.4375 L 1.15625 -19.140625 C 1.101562 -19.234375 1.078125 -19.304688 1.078125 -19.359375 C 1.078125 -19.492188 1.203125 -19.5625 1.453125 -19.5625 L 3.34375 -19.5625 C 3.507812 -19.5625 3.617188 -19.539062 3.671875 -19.5 C 3.734375 -19.457031 3.8125 -19.375 3.90625 -19.25 L 8.8125 -10.8125 C 8.914062 -10.601562 9.007812 -10.5 9.09375 -10.5 C 9.164062 -10.5 9.265625 -10.585938 9.390625 -10.765625 L 14.265625 -19.25 C 14.335938 -19.375 14.40625 -19.457031 14.46875 -19.5 C 14.539062 -19.539062 14.660156 -19.5625 14.828125 -19.5625 Z M 16.453125 -19.5625 "/></g></g></g><g fill="#000000" fill-opacity="1"><g transform="translate(70.250461, 57.900411)"><g><path d="M 2.921875 0 C 2.679688 0 2.5625 -0.128906 2.5625 -0.390625 L 2.5625 -19.203125 C 2.5625 -19.335938 2.582031 -19.429688 2.625 -19.484375 C 2.664062 -19.535156 2.75 -19.5625 2.875 -19.5625 L 5.40625 -19.5625 C 5.550781 -19.5625 5.648438 -19.539062 5.703125 -19.5 C 5.765625 -19.457031 5.816406 -19.382812 5.859375 -19.28125 L 11.703125 -4.171875 C 11.765625 -4.015625 11.828125 -3.9375 11.890625 -3.9375 C 11.984375 -3.9375 12.0625 -4.019531 12.125 -4.1875 L 17.984375 -19.234375 C 18.035156 -19.453125 18.171875 -19.5625 18.390625 -19.5625 L 21.046875 -19.5625 C 21.242188 -19.5625 21.34375 -19.453125 21.34375 -19.234375 L 21.34375 -0.390625 C 21.34375 -0.128906 21.207031 0 20.9375 0 L 19.203125 0 C 18.941406 0 18.8125 -0.113281 18.8125 -0.34375 L 18.8125 -15.421875 C 18.8125 -15.515625 18.796875 -15.554688 18.765625 -15.546875 C 18.734375 -15.535156 18.703125 -15.492188 18.671875 -15.421875 L 12.875 -0.34375 C 12.769531 -0.113281 12.601562 0 12.375 0 L 11.109375 0 C 10.835938 0 10.660156 -0.101562 10.578125 -0.3125 L 4.859375 -15.265625 C 4.835938 -15.359375 4.804688 -15.40625 4.765625 -15.40625 C 4.734375 -15.40625 4.71875 -15.359375 4.71875 -15.265625 L 4.71875 -0.34375 C 4.71875 -0.21875 4.691406 -0.128906 4.640625 -0.078125 C 4.585938 -0.0234375 4.492188 0 4.359375 0 Z M 2.921875 0 "/></g></g></g><g fill="#000000" fill-opacity="1"><g transform="translate(99.809336, 57.900411)"><g><path d="M 10.078125 0.265625 C 8.347656 0.265625 6.851562 -0.117188 5.59375 -0.890625 C 4.34375 -1.671875 3.382812 -2.804688 2.71875 -4.296875 C 2.050781 -5.796875 1.71875 -7.597656 1.71875 -9.703125 C 1.71875 -11.828125 2.054688 -13.648438 2.734375 -15.171875 C 3.410156 -16.691406 4.375 -17.847656 5.625 -18.640625 C 6.882812 -19.429688 8.378906 -19.828125 10.109375 -19.828125 C 11.804688 -19.828125 13.285156 -19.429688 14.546875 -18.640625 C 15.804688 -17.847656 16.769531 -16.695312 17.4375 -15.1875 C 18.101562 -13.675781 18.4375 -11.859375 18.4375 -9.734375 C 18.4375 -7.617188 18.101562 -5.8125 17.4375 -4.3125 C 16.769531 -2.820312 15.804688 -1.6875 14.546875 -0.90625 C 13.285156 -0.125 11.796875 0.265625 10.078125 0.265625 Z M 10.125 -1.65625 C 12.019531 -1.65625 13.4375 -2.316406 14.375 -3.640625 C 15.320312 -4.960938 15.796875 -6.984375 15.796875 -9.703125 C 15.796875 -12.484375 15.316406 -14.546875 14.359375 -15.890625 C 13.398438 -17.234375 11.984375 -17.90625 10.109375 -17.90625 C 8.191406 -17.90625 6.753906 -17.226562 5.796875 -15.875 C 4.835938 -14.519531 4.359375 -12.460938 4.359375 -9.703125 C 4.359375 -6.984375 4.835938 -4.960938 5.796875 -3.640625 C 6.753906 -2.316406 8.195312 -1.65625 10.125 -1.65625 Z M 10.125 -1.65625 "/></g></g></g><g fill="#000000" fill-opacity="1"><g transform="translate(125.624157, 57.900411)"><g><path d="M 17.125 -19.5625 C 17.226562 -19.5625 17.300781 -19.539062 17.34375 -19.5 C 17.382812 -19.457031 17.40625 -19.375 17.40625 -19.25 L 17.40625 -0.3125 C 17.40625 -0.101562 17.289062 0 17.0625 0 L 15.765625 0 C 15.628906 0 15.519531 -0.0078125 15.4375 -0.03125 C 15.363281 -0.0625 15.289062 -0.125 15.21875 -0.21875 L 5.03125 -15 C 4.96875 -15.125 4.90625 -15.175781 4.84375 -15.15625 C 4.78125 -15.144531 4.75 -15.085938 4.75 -14.984375 L 4.75 -0.34375 C 4.75 -0.113281 4.625 0 4.375 0 L 2.90625 0 C 2.675781 0 2.5625 -0.113281 2.5625 -0.34375 L 2.5625 -19.203125 C 2.5625 -19.335938 2.582031 -19.429688 2.625 -19.484375 C 2.664062 -19.535156 2.757812 -19.5625 2.90625 -19.5625 L 4.40625 -19.5625 C 4.539062 -19.5625 4.644531 -19.546875 4.71875 -19.515625 C 4.789062 -19.484375 4.867188 -19.414062 4.953125 -19.3125 L 14.84375 -4.828125 C 14.9375 -4.722656 15.019531 -4.671875 15.09375 -4.671875 C 15.195312 -4.671875 15.25 -4.75 15.25 -4.90625 L 15.25 -19.25 C 15.25 -19.457031 15.351562 -19.5625 15.5625 -19.5625 Z M 17.125 -19.5625 "/></g></g></g><g fill="#000000" fill-opacity="1"><g transform="translate(151.254414, 57.900411)"><g><path d="M 1.109375 -19.28125 C 1.109375 -19.46875 1.210938 -19.5625 1.421875 -19.5625 L 15.609375 -19.5625 C 15.828125 -19.5625 15.9375 -19.46875 15.9375 -19.28125 L 15.9375 -17.90625 C 15.9375 -17.800781 15.90625 -17.726562 15.84375 -17.6875 C 15.789062 -17.65625 15.710938 -17.640625 15.609375 -17.640625 L 10.265625 -17.640625 C 10.160156 -17.640625 10.082031 -17.625 10.03125 -17.59375 C 9.988281 -17.5625 9.96875 -17.488281 9.96875 -17.375 L 9.96875 -0.34375 C 9.96875 -0.113281 9.863281 0 9.65625 0 L 7.75 0 C 7.539062 0 7.4375 -0.113281 7.4375 -0.34375 L 7.4375 -17.359375 C 7.4375 -17.484375 7.414062 -17.5625 7.375 -17.59375 C 7.34375 -17.625 7.273438 -17.640625 7.171875 -17.640625 L 1.421875 -17.640625 C 1.316406 -17.640625 1.238281 -17.65625 1.1875 -17.6875 C 1.132812 -17.726562 1.109375 -17.800781 1.109375 -17.90625 Z M 1.109375 -19.28125 "/></g></g></g><g fill="#000000" fill-opacity="1"><g transform="translate(0.241373, 89.712038)"><g><path d="M 9.890625 0.265625 C 8.222656 0.265625 6.769531 -0.132812 5.53125 -0.9375 C 4.300781 -1.738281 3.359375 -2.882812 2.703125 -4.375 C 2.046875 -5.875 1.71875 -7.648438 1.71875 -9.703125 C 1.71875 -11.796875 2.054688 -13.609375 2.734375 -15.140625 C 3.410156 -16.671875 4.367188 -17.832031 5.609375 -18.625 C 6.859375 -19.425781 8.320312 -19.828125 10 -19.828125 C 11.195312 -19.828125 12.316406 -19.582031 13.359375 -19.09375 C 14.398438 -18.601562 15.257812 -17.953125 15.9375 -17.140625 C 16.613281 -16.335938 17.023438 -15.476562 17.171875 -14.5625 L 17.171875 -14.40625 C 17.171875 -14.332031 17.15625 -14.273438 17.125 -14.234375 C 17.101562 -14.203125 17.046875 -14.171875 16.953125 -14.140625 L 15.0625 -13.84375 L 15 -13.84375 C 14.894531 -13.84375 14.816406 -13.929688 14.765625 -14.109375 C 14.578125 -15.179688 14.039062 -16.082031 13.15625 -16.8125 C 12.28125 -17.539062 11.21875 -17.90625 9.96875 -17.90625 C 8.15625 -17.90625 6.765625 -17.21875 5.796875 -15.84375 C 4.835938 -14.476562 4.359375 -12.484375 4.359375 -9.859375 C 4.359375 -7.117188 4.835938 -5.066406 5.796875 -3.703125 C 6.765625 -2.335938 8.171875 -1.65625 10.015625 -1.65625 C 11.085938 -1.65625 12.007812 -1.890625 12.78125 -2.359375 C 13.5625 -2.835938 14.148438 -3.445312 14.546875 -4.1875 C 14.941406 -4.925781 15.164062 -5.675781 15.21875 -6.4375 L 15.21875 -8.078125 C 15.21875 -8.234375 15.128906 -8.3125 14.953125 -8.3125 L 10.65625 -8.3125 C 10.457031 -8.3125 10.359375 -8.398438 10.359375 -8.578125 L 10.359375 -9.703125 C 10.359375 -9.859375 10.445312 -9.9375 10.625 -9.9375 L 17.171875 -9.921875 C 17.429688 -9.921875 17.5625 -9.8125 17.5625 -9.59375 L 17.5625 -0.34375 C 17.5625 -0.113281 17.457031 0 17.25 0 L 16.640625 0 C 16.503906 0 16.398438 -0.015625 16.328125 -0.046875 C 16.253906 -0.0859375 16.203125 -0.175781 16.171875 -0.3125 L 15.875 -2.765625 C 15.851562 -2.835938 15.820312 -2.875 15.78125 -2.875 C 15.738281 -2.875 15.691406 -2.832031 15.640625 -2.75 C 15.078125 -1.84375 14.320312 -1.113281 13.375 -0.5625 C 12.4375 -0.0078125 11.273438 0.265625 9.890625 0.265625 Z M 9.890625 0.265625 "/></g></g></g><g fill="#000000" fill-opacity="1"><g transform="translate(25.397034, 89.712038)"><g><path d="M 16.53125 -0.5 C 16.550781 -0.46875 16.5625 -0.40625 16.5625 -0.3125 C 16.5625 -0.101562 16.457031 0 16.25 0 L 14.328125 0 C 14.128906 0 13.988281 -0.101562 13.90625 -0.3125 L 10.5 -8.625 C 10.445312 -8.726562 10.375 -8.804688 10.28125 -8.859375 C 10.195312 -8.910156 10.054688 -8.9375 9.859375 -8.9375 L 5.40625 -8.9375 C 5.195312 -8.9375 5.09375 -8.84375 5.09375 -8.65625 L 5.09375 -0.421875 C 5.09375 -0.265625 5.0625 -0.15625 5 -0.09375 C 4.9375 -0.03125 4.816406 0 4.640625 0 L 2.921875 0 C 2.785156 0 2.691406 -0.0234375 2.640625 -0.078125 C 2.585938 -0.128906 2.5625 -0.21875 2.5625 -0.34375 L 2.5625 -19.203125 C 2.5625 -19.335938 2.582031 -19.429688 2.625 -19.484375 C 2.664062 -19.535156 2.75 -19.5625 2.875 -19.5625 L 10.234375 -19.5625 C 12.328125 -19.5625 13.941406 -19.128906 15.078125 -18.265625 C 16.222656 -17.410156 16.796875 -16.15625 16.796875 -14.5 C 16.796875 -13.113281 16.421875 -11.992188 15.671875 -11.140625 C 14.929688 -10.285156 14.023438 -9.703125 12.953125 -9.390625 C 12.878906 -9.367188 12.832031 -9.332031 12.8125 -9.28125 C 12.800781 -9.226562 12.8125 -9.175781 12.84375 -9.125 Z M 9.5 -10.765625 C 11.0625 -10.765625 12.226562 -11.046875 13 -11.609375 C 13.769531 -12.171875 14.15625 -13.054688 14.15625 -14.265625 C 14.15625 -15.410156 13.8125 -16.269531 13.125 -16.84375 C 12.445312 -17.425781 11.441406 -17.71875 10.109375 -17.71875 L 5.453125 -17.71875 C 5.210938 -17.71875 5.09375 -17.625 5.09375 -17.4375 L 5.09375 -11.109375 C 5.09375 -10.878906 5.171875 -10.765625 5.328125 -10.765625 Z M 9.5 -10.765625 "/></g></g></g><g fill="#000000" fill-opacity="1"><g transform="translate(49.418927, 89.712038)"><g><path d="M 10.078125 0.265625 C 8.347656 0.265625 6.851562 -0.117188 5.59375 -0.890625 C 4.34375 -1.671875 3.382812 -2.804688 2.71875 -4.296875 C 2.050781 -5.796875 1.71875 -7.597656 1.71875 -9.703125 C 1.71875 -11.828125 2.054688 -13.648438 2.734375 -15.171875 C 3.410156 -16.691406 4.375 -17.847656 5.625 -18.640625 C 6.882812 -19.429688 8.378906 -19.828125 10.109375 -19.828125 C 11.804688 -19.828125 13.285156 -19.429688 14.546875 -18.640625 C 15.804688 -17.847656 16.769531 -16.695312 17.4375 -15.1875 C 18.101562 -13.675781 18.4375 -11.859375 18.4375 -9.734375 C 18.4375 -7.617188 18.101562 -5.8125 17.4375 -4.3125 C 16.769531 -2.820312 15.804688 -1.6875 14.546875 -0.90625 C 13.285156 -0.125 11.796875 0.265625 10.078125 0.265625 Z M 10.125 -1.65625 C 12.019531 -1.65625 13.4375 -2.316406 14.375 -3.640625 C 15.320312 -4.960938 15.796875 -6.984375 15.796875 -9.703125 C 15.796875 -12.484375 15.316406 -14.546875 14.359375 -15.890625 C 13.398438 -17.234375 11.984375 -17.90625 10.109375 -17.90625 C 8.191406 -17.90625 6.753906 -17.226562 5.796875 -15.875 C 4.835938 -14.519531 4.359375 -12.460938 4.359375 -9.703125 C 4.359375 -6.984375 4.835938 -4.960938 5.796875 -3.640625 C 6.753906 -2.316406 8.195312 -1.65625 10.125 -1.65625 Z M 10.125 -1.65625 "/></g></g></g><g fill="#000000" fill-opacity="1"><g transform="translate(75.233748, 89.712038)"><g><path d="M 16.40625 -6.515625 C 16.40625 -4.191406 15.8125 -2.476562 14.625 -1.375 C 13.4375 -0.28125 11.679688 0.265625 9.359375 0.265625 C 6.921875 0.265625 5.140625 -0.320312 4.015625 -1.5 C 2.890625 -2.675781 2.328125 -4.5 2.328125 -6.96875 L 2.328125 -19.203125 C 2.328125 -19.441406 2.421875 -19.5625 2.609375 -19.5625 L 4.515625 -19.5625 C 4.722656 -19.5625 4.828125 -19.453125 4.828125 -19.234375 L 4.828125 -6.40625 C 4.828125 -4.8125 5.21875 -3.625 6 -2.84375 C 6.78125 -2.070312 7.953125 -1.6875 9.515625 -1.6875 C 11.085938 -1.6875 12.269531 -2.078125 13.0625 -2.859375 C 13.863281 -3.640625 14.265625 -4.847656 14.265625 -6.484375 L 14.265625 -19.234375 C 14.265625 -19.453125 14.363281 -19.5625 14.5625 -19.5625 L 16.109375 -19.5625 C 16.304688 -19.5625 16.40625 -19.457031 16.40625 -19.25 Z M 16.40625 -6.515625 "/></g></g></g><g fill="#000000" fill-opacity="1"><g transform="translate(99.598405, 89.712038)"><g><path d="M 16.78125 -13.875 C 16.78125 -11.988281 16.148438 -10.566406 14.890625 -9.609375 C 13.628906 -8.648438 11.9375 -8.171875 9.8125 -8.171875 L 5.328125 -8.171875 C 5.171875 -8.171875 5.09375 -8.09375 5.09375 -7.9375 L 5.09375 -0.390625 C 5.09375 -0.128906 4.957031 0 4.6875 0 L 2.90625 0 C 2.675781 0 2.5625 -0.113281 2.5625 -0.34375 L 2.5625 -19.203125 C 2.5625 -19.335938 2.582031 -19.429688 2.625 -19.484375 C 2.664062 -19.535156 2.75 -19.5625 2.875 -19.5625 L 9.515625 -19.5625 C 11.710938 -19.5625 13.472656 -19.09375 14.796875 -18.15625 C 16.117188 -17.21875 16.78125 -15.789062 16.78125 -13.875 Z M 14.1875 -13.953125 C 14.1875 -15.253906 13.769531 -16.191406 12.9375 -16.765625 C 12.113281 -17.347656 10.929688 -17.640625 9.390625 -17.640625 L 5.4375 -17.640625 C 5.207031 -17.640625 5.09375 -17.535156 5.09375 -17.328125 L 5.09375 -10.46875 C 5.09375 -10.332031 5.109375 -10.238281 5.140625 -10.1875 C 5.179688 -10.132812 5.242188 -10.109375 5.328125 -10.109375 L 9.578125 -10.109375 C 11.015625 -10.109375 12.140625 -10.425781 12.953125 -11.0625 C 13.773438 -11.707031 14.1875 -12.671875 14.1875 -13.953125 Z M 14.1875 -13.953125 "/></g></g></g></g></g></svg>