<svg xmlns="http://www.w3.org/2000/svg" xmlns:xlink="http://www.w3.org/1999/xlink" width="500" zoomAndPan="magnify" viewBox="0 0 375 374.999991" height="500" preserveAspectRatio="xMidYMid meet" version="1.0"><defs><g/><clipPath id="30829bf137"><path d="M 2.25 114.558594 L 87.75 114.558594 L 87.75 268.308594 L 2.25 268.308594 Z M 2.25 114.558594 " clip-rule="nonzero"/></clipPath><clipPath id="c119fbf08e"><rect x="0" width="288" y="0" height="165"/></clipPath></defs><g clip-path="url(#30829bf137)"><path fill="#000000" d="M 87.746094 209.984375 L 87.746094 217.558594 C 59.789062 217.558594 37.050781 240.320312 37.050781 268.296875 L 29.488281 268.296875 C 29.488281 236.140625 55.625 209.984375 87.746094 209.984375 Z M 15.867188 268.292969 L 23.433594 268.292969 C 23.433594 232.796875 52.28125 203.921875 87.746094 203.921875 L 87.746094 196.351562 C 48.113281 196.351562 15.867188 228.625 15.867188 268.292969 Z M 87.746094 122.140625 L 87.746094 114.566406 C 40.605469 114.566406 2.25 152.953125 2.25 200.136719 L 2.25 268.292969 L 9.816406 268.292969 C 9.816406 225.28125 44.777344 190.289062 87.75 190.289062 L 87.75 182.714844 C 68.792969 182.714844 51.265625 188.929688 37.074219 199.421875 C 37.457031 171.773438 60.035156 149.398438 87.75 149.398438 L 87.75 141.828125 C 55.628906 141.828125 29.488281 167.988281 29.488281 200.140625 L 29.488281 205.746094 C 27.367188 207.726562 25.351562 209.816406 23.433594 212 L 23.433594 200.136719 C 23.433594 164.640625 52.28125 135.769531 87.746094 135.769531 L 87.746094 128.195312 C 48.113281 128.195312 15.867188 160.46875 15.867188 200.136719 L 15.867188 222.042969 C 13.589844 225.582031 11.5625 229.296875 9.8125 233.164062 L 9.8125 200.136719 C 9.816406 157.128906 44.777344 122.140625 87.746094 122.140625 Z M 87.746094 122.140625 " fill-opacity="1" fill-rule="nonzero"/></g><g transform="matrix(1, 0, 0, 1, 87, 105)"><g clip-path="url(#c119fbf08e)"><g fill="#000000" fill-opacity="1"><g transform="translate(0.94913, 44.132965)"><g><path d="M 1.890625 -33.015625 C 1.890625 -33.335938 2.070312 -33.5 2.4375 -33.5 L 26.734375 -33.5 C 27.097656 -33.5 27.28125 -33.335938 27.28125 -33.015625 L 27.28125 -30.65625 C 27.28125 -30.476562 27.234375 -30.359375 27.140625 -30.296875 C 27.046875 -30.234375 26.910156 -30.203125 26.734375 -30.203125 L 17.5625 -30.203125 C 17.382812 -30.203125 17.253906 -30.171875 17.171875 -30.109375 C 17.097656 -30.054688 17.0625 -29.941406 17.0625 -29.765625 L 17.0625 -0.59375 C 17.0625 -0.195312 16.882812 0 16.53125 0 L 13.28125 0 C 12.914062 0 12.734375 -0.195312 12.734375 -0.59375 L 12.734375 -29.71875 C 12.734375 -29.925781 12.703125 -30.054688 12.640625 -30.109375 C 12.578125 -30.171875 12.457031 -30.203125 12.28125 -30.203125 L 2.4375 -30.203125 C 2.257812 -30.203125 2.125 -30.234375 2.03125 -30.296875 C 1.9375 -30.359375 1.890625 -30.476562 1.890625 -30.65625 Z M 1.890625 -33.015625 "/></g></g></g><g fill="#000000" fill-opacity="1"><g transform="translate(39.768854, 44.132965)"><g><path d="M 9.078125 -15.671875 C 8.953125 -15.671875 8.859375 -15.628906 8.796875 -15.546875 C 8.742188 -15.472656 8.71875 -15.394531 8.71875 -15.3125 L 8.71875 -0.671875 C 8.71875 -0.429688 8.65625 -0.257812 8.53125 -0.15625 C 8.414062 -0.0507812 8.222656 0 7.953125 0 L 5.015625 0 C 4.773438 0 4.609375 -0.0390625 4.515625 -0.125 C 4.421875 -0.21875 4.375 -0.382812 4.375 -0.625 L 4.375 -32.875 C 4.375 -33.289062 4.554688 -33.5 4.921875 -33.5 L 8.171875 -33.5 C 8.535156 -33.5 8.71875 -33.304688 8.71875 -32.921875 L 8.71875 -19.640625 C 8.71875 -19.429688 8.753906 -19.285156 8.828125 -19.203125 C 8.898438 -19.128906 9.03125 -19.09375 9.21875 -19.09375 L 24.015625 -19.09375 C 24.316406 -19.09375 24.46875 -19.273438 24.46875 -19.640625 L 24.46875 -32.96875 C 24.46875 -33.320312 24.632812 -33.5 24.96875 -33.5 L 28.265625 -33.5 C 28.472656 -33.5 28.613281 -33.453125 28.6875 -33.359375 C 28.769531 -33.273438 28.8125 -33.113281 28.8125 -32.875 L 28.8125 -0.625 C 28.8125 -0.207031 28.597656 0 28.171875 0 L 25.25 0 C 24.96875 0 24.765625 -0.0507812 24.640625 -0.15625 C 24.523438 -0.257812 24.46875 -0.429688 24.46875 -0.671875 L 24.46875 -15.265625 C 24.46875 -15.535156 24.332031 -15.671875 24.0625 -15.671875 Z M 9.078125 -15.671875 "/></g></g></g><g fill="#000000" fill-opacity="1"><g transform="translate(82.650754, 44.132965)"><g><path d="M 4.375 -32.875 C 4.375 -33.113281 4.410156 -33.273438 4.484375 -33.359375 C 4.566406 -33.453125 4.710938 -33.5 4.921875 -33.5 L 25.203125 -33.5 C 25.503906 -33.5 25.65625 -33.335938 25.65625 -33.015625 L 25.65625 -30.703125 C 25.65625 -30.347656 25.457031 -30.171875 25.0625 -30.171875 L 9.296875 -30.171875 C 9.054688 -30.171875 8.898438 -30.128906 8.828125 -30.046875 C 8.753906 -29.972656 8.71875 -29.832031 8.71875 -29.625 L 8.71875 -19.0625 C 8.71875 -18.726562 8.882812 -18.5625 9.21875 -18.5625 L 20.90625 -18.5625 C 21.238281 -18.5625 21.40625 -18.394531 21.40625 -18.0625 L 21.40625 -15.671875 C 21.40625 -15.398438 21.238281 -15.265625 20.90625 -15.265625 L 9.21875 -15.265625 C 8.882812 -15.265625 8.71875 -15.097656 8.71875 -14.765625 L 8.71875 -3.796875 C 8.71875 -3.609375 8.742188 -3.484375 8.796875 -3.421875 C 8.859375 -3.367188 8.984375 -3.34375 9.171875 -3.34375 L 25.734375 -3.34375 C 25.921875 -3.34375 26.050781 -3.3125 26.125 -3.25 C 26.195312 -3.1875 26.234375 -3.066406 26.234375 -2.890625 L 26.234375 -0.5 C 26.234375 -0.164062 26.066406 0 25.734375 0 L 5.015625 0 C 4.773438 0 4.609375 -0.0390625 4.515625 -0.125 C 4.421875 -0.21875 4.375 -0.382812 4.375 -0.625 Z M 4.375 -32.875 "/></g></g></g><g fill="#000000" fill-opacity="1"><g transform="translate(0.94913, 98.589371)"><g><path d="M 29.390625 -33.5 C 29.609375 -33.5 29.753906 -33.429688 29.828125 -33.296875 C 29.898438 -33.160156 29.90625 -33.019531 29.84375 -32.875 L 18.421875 -0.671875 C 18.328125 -0.429688 18.207031 -0.257812 18.0625 -0.15625 C 17.914062 -0.0507812 17.707031 0 17.4375 0 L 14.359375 0 C 13.753906 0 13.394531 -0.207031 13.28125 -0.625 L 2.078125 -32.828125 C 2.046875 -32.890625 2.03125 -32.960938 2.03125 -33.046875 C 2.03125 -33.347656 2.210938 -33.5 2.578125 -33.5 L 5.6875 -33.5 C 6.050781 -33.5 6.304688 -33.320312 6.453125 -32.96875 L 15.84375 -5.59375 C 15.9375 -5.320312 16.046875 -5.1875 16.171875 -5.1875 C 16.285156 -5.1875 16.40625 -5.335938 16.53125 -5.640625 L 26.0625 -33.015625 C 26.144531 -33.335938 26.367188 -33.5 26.734375 -33.5 Z M 29.390625 -33.5 "/></g></g></g><g fill="#000000" fill-opacity="1"><g transform="translate(42.567248, 98.589371)"><g><path d="M 4.375 -32.875 C 4.375 -33.113281 4.410156 -33.273438 4.484375 -33.359375 C 4.566406 -33.453125 4.710938 -33.5 4.921875 -33.5 L 25.203125 -33.5 C 25.503906 -33.5 25.65625 -33.335938 25.65625 -33.015625 L 25.65625 -30.703125 C 25.65625 -30.347656 25.457031 -30.171875 25.0625 -30.171875 L 9.296875 -30.171875 C 9.054688 -30.171875 8.898438 -30.128906 8.828125 -30.046875 C 8.753906 -29.972656 8.71875 -29.832031 8.71875 -29.625 L 8.71875 -19.0625 C 8.71875 -18.726562 8.882812 -18.5625 9.21875 -18.5625 L 20.90625 -18.5625 C 21.238281 -18.5625 21.40625 -18.394531 21.40625 -18.0625 L 21.40625 -15.671875 C 21.40625 -15.398438 21.238281 -15.265625 20.90625 -15.265625 L 9.21875 -15.265625 C 8.882812 -15.265625 8.71875 -15.097656 8.71875 -14.765625 L 8.71875 -3.796875 C 8.71875 -3.609375 8.742188 -3.484375 8.796875 -3.421875 C 8.859375 -3.367188 8.984375 -3.34375 9.171875 -3.34375 L 25.734375 -3.34375 C 25.921875 -3.34375 26.050781 -3.3125 26.125 -3.25 C 26.195312 -3.1875 26.234375 -3.066406 26.234375 -2.890625 L 26.234375 -0.5 C 26.234375 -0.164062 26.066406 0 25.734375 0 L 5.015625 0 C 4.773438 0 4.609375 -0.0390625 4.515625 -0.125 C 4.421875 -0.21875 4.375 -0.382812 4.375 -0.625 Z M 4.375 -32.875 "/></g></g></g><g fill="#000000" fill-opacity="1"><g transform="translate(80.619675, 98.589371)"><g><path d="M 28.171875 -33.5 C 28.390625 -33.5 28.535156 -33.4375 28.609375 -33.3125 C 28.679688 -33.195312 28.65625 -33.050781 28.53125 -32.875 L 17.796875 -14.90625 C 17.671875 -14.71875 17.59375 -14.523438 17.5625 -14.328125 C 17.53125 -14.140625 17.515625 -13.832031 17.515625 -13.40625 L 17.515625 -0.765625 C 17.515625 -0.492188 17.445312 -0.296875 17.3125 -0.171875 C 17.175781 -0.0546875 16.957031 0 16.65625 0 L 13.953125 0 C 13.472656 0 13.234375 -0.222656 13.234375 -0.671875 L 13.234375 -13.234375 C 13.234375 -13.503906 13.207031 -13.710938 13.15625 -13.859375 C 13.113281 -14.015625 13.019531 -14.210938 12.875 -14.453125 L 1.984375 -32.78125 C 1.890625 -32.9375 1.84375 -33.054688 1.84375 -33.140625 C 1.84375 -33.378906 2.054688 -33.5 2.484375 -33.5 L 5.734375 -33.5 C 6.003906 -33.5 6.191406 -33.460938 6.296875 -33.390625 C 6.398438 -33.316406 6.53125 -33.175781 6.6875 -32.96875 L 15.078125 -18.515625 C 15.265625 -18.148438 15.429688 -17.96875 15.578125 -17.96875 C 15.703125 -17.96875 15.867188 -18.117188 16.078125 -18.421875 L 24.421875 -32.96875 C 24.546875 -33.175781 24.664062 -33.316406 24.78125 -33.390625 C 24.90625 -33.460938 25.101562 -33.5 25.375 -33.5 Z M 28.171875 -33.5 "/></g></g></g><g fill="#000000" fill-opacity="1"><g transform="translate(120.793471, 98.589371)"><g><path d="M 5.015625 0 C 4.585938 0 4.375 -0.222656 4.375 -0.671875 L 4.375 -32.875 C 4.375 -33.113281 4.410156 -33.273438 4.484375 -33.359375 C 4.566406 -33.453125 4.710938 -33.5 4.921875 -33.5 L 9.25 -33.5 C 9.5 -33.5 9.675781 -33.460938 9.78125 -33.390625 C 9.882812 -33.316406 9.96875 -33.191406 10.03125 -33.015625 L 20.046875 -7.140625 C 20.140625 -6.867188 20.242188 -6.734375 20.359375 -6.734375 C 20.515625 -6.734375 20.648438 -6.882812 20.765625 -7.1875 L 30.796875 -32.921875 C 30.890625 -33.304688 31.113281 -33.5 31.46875 -33.5 L 36.03125 -33.5 C 36.363281 -33.5 36.53125 -33.304688 36.53125 -32.921875 L 36.53125 -0.671875 C 36.53125 -0.222656 36.304688 0 35.859375 0 L 32.875 0 C 32.425781 0 32.203125 -0.195312 32.203125 -0.59375 L 32.203125 -26.421875 C 32.203125 -26.566406 32.175781 -26.628906 32.125 -26.609375 C 32.082031 -26.597656 32.03125 -26.535156 31.96875 -26.421875 L 22.03125 -0.59375 C 21.851562 -0.195312 21.566406 0 21.171875 0 L 19.015625 0 C 18.554688 0 18.253906 -0.179688 18.109375 -0.546875 L 8.3125 -26.140625 C 8.28125 -26.296875 8.234375 -26.375 8.171875 -26.375 C 8.109375 -26.375 8.078125 -26.296875 8.078125 -26.140625 L 8.078125 -0.59375 C 8.078125 -0.375 8.03125 -0.21875 7.9375 -0.125 C 7.851562 -0.0390625 7.691406 0 7.453125 0 Z M 5.015625 0 "/></g></g></g><g fill="#000000" fill-opacity="1"><g transform="translate(171.393528, 98.589371)"><g><path d="M 17.25 0.453125 C 14.300781 0.453125 11.75 -0.207031 9.59375 -1.53125 C 7.4375 -2.851562 5.785156 -4.796875 4.640625 -7.359375 C 3.503906 -9.921875 2.9375 -13.007812 2.9375 -16.625 C 2.9375 -20.257812 3.515625 -23.378906 4.671875 -25.984375 C 5.828125 -28.585938 7.484375 -30.566406 9.640625 -31.921875 C 11.796875 -33.273438 14.347656 -33.953125 17.296875 -33.953125 C 20.210938 -33.953125 22.742188 -33.273438 24.890625 -31.921875 C 27.046875 -30.566406 28.695312 -28.59375 29.84375 -26 C 30.988281 -23.414062 31.5625 -20.300781 31.5625 -16.65625 C 31.5625 -13.050781 30.988281 -9.96875 29.84375 -7.40625 C 28.695312 -4.84375 27.046875 -2.890625 24.890625 -1.546875 C 22.742188 -0.210938 20.195312 0.453125 17.25 0.453125 Z M 17.34375 -2.84375 C 20.59375 -2.84375 23.019531 -3.972656 24.625 -6.234375 C 26.238281 -8.492188 27.046875 -11.957031 27.046875 -16.625 C 27.046875 -21.375 26.222656 -24.898438 24.578125 -27.203125 C 22.941406 -29.503906 20.515625 -30.65625 17.296875 -30.65625 C 14.015625 -30.65625 11.550781 -29.492188 9.90625 -27.171875 C 8.269531 -24.859375 7.453125 -21.34375 7.453125 -16.625 C 7.453125 -11.957031 8.269531 -8.492188 9.90625 -6.234375 C 11.550781 -3.972656 14.03125 -2.84375 17.34375 -2.84375 Z M 17.34375 -2.84375 "/></g></g></g><g fill="#000000" fill-opacity="1"><g transform="translate(215.584365, 98.589371)"><g><path d="M 29.3125 -33.5 C 29.488281 -33.5 29.613281 -33.460938 29.6875 -33.390625 C 29.757812 -33.316406 29.796875 -33.175781 29.796875 -32.96875 L 29.796875 -0.546875 C 29.796875 -0.179688 29.601562 0 29.21875 0 L 27 0 C 26.757812 0 26.570312 -0.0195312 26.4375 -0.0625 C 26.300781 -0.113281 26.175781 -0.210938 26.0625 -0.359375 L 8.625 -25.6875 C 8.5 -25.90625 8.382812 -26 8.28125 -25.96875 C 8.175781 -25.9375 8.125 -25.832031 8.125 -25.65625 L 8.125 -0.59375 C 8.125 -0.195312 7.914062 0 7.5 0 L 4.96875 0 C 4.570312 0 4.375 -0.195312 4.375 -0.59375 L 4.375 -32.875 C 4.375 -33.113281 4.410156 -33.273438 4.484375 -33.359375 C 4.566406 -33.453125 4.726562 -33.5 4.96875 -33.5 L 7.546875 -33.5 C 7.785156 -33.5 7.960938 -33.46875 8.078125 -33.40625 C 8.203125 -33.351562 8.335938 -33.234375 8.484375 -33.046875 L 25.421875 -8.265625 C 25.578125 -8.085938 25.710938 -8 25.828125 -8 C 26.003906 -8 26.09375 -8.132812 26.09375 -8.40625 L 26.09375 -32.96875 C 26.09375 -33.320312 26.273438 -33.5 26.640625 -33.5 Z M 29.3125 -33.5 "/></g></g></g><g fill="#000000" fill-opacity="1"><g transform="translate(259.459256, 98.589371)"><g><path d="M 1.890625 -33.015625 C 1.890625 -33.335938 2.070312 -33.5 2.4375 -33.5 L 26.734375 -33.5 C 27.097656 -33.5 27.28125 -33.335938 27.28125 -33.015625 L 27.28125 -30.65625 C 27.28125 -30.476562 27.234375 -30.359375 27.140625 -30.296875 C 27.046875 -30.234375 26.910156 -30.203125 26.734375 -30.203125 L 17.5625 -30.203125 C 17.382812 -30.203125 17.253906 -30.171875 17.171875 -30.109375 C 17.097656 -30.054688 17.0625 -29.941406 17.0625 -29.765625 L 17.0625 -0.59375 C 17.0625 -0.195312 16.882812 0 16.53125 0 L 13.28125 0 C 12.914062 0 12.734375 -0.195312 12.734375 -0.59375 L 12.734375 -29.71875 C 12.734375 -29.925781 12.703125 -30.054688 12.640625 -30.109375 C 12.578125 -30.171875 12.457031 -30.203125 12.28125 -30.203125 L 2.4375 -30.203125 C 2.257812 -30.203125 2.125 -30.234375 2.03125 -30.296875 C 1.9375 -30.359375 1.890625 -30.476562 1.890625 -30.65625 Z M 1.890625 -33.015625 "/></g></g></g><g fill="#000000" fill-opacity="1"><g transform="translate(0.94913, 153.045778)"><g><path d="M 16.9375 0.453125 C 14.070312 0.453125 11.585938 -0.226562 9.484375 -1.59375 C 7.378906 -2.96875 5.757812 -4.929688 4.625 -7.484375 C 3.5 -10.046875 2.9375 -13.09375 2.9375 -16.625 C 2.9375 -20.195312 3.515625 -23.289062 4.671875 -25.90625 C 5.828125 -28.53125 7.472656 -30.523438 9.609375 -31.890625 C 11.753906 -33.265625 14.253906 -33.953125 17.109375 -33.953125 C 19.160156 -33.953125 21.082031 -33.53125 22.875 -32.6875 C 24.664062 -31.84375 26.140625 -30.726562 27.296875 -29.34375 C 28.453125 -27.96875 29.148438 -26.492188 29.390625 -24.921875 L 29.390625 -24.65625 C 29.390625 -24.53125 29.367188 -24.4375 29.328125 -24.375 C 29.285156 -24.320312 29.1875 -24.265625 29.03125 -24.203125 L 25.78125 -23.703125 L 25.6875 -23.703125 C 25.507812 -23.703125 25.375 -23.851562 25.28125 -24.15625 C 24.957031 -25.988281 24.039062 -27.53125 22.53125 -28.78125 C 21.03125 -30.03125 19.207031 -30.65625 17.0625 -30.65625 C 13.96875 -30.65625 11.59375 -29.476562 9.9375 -27.125 C 8.28125 -24.78125 7.453125 -21.367188 7.453125 -16.890625 C 7.453125 -12.191406 8.28125 -8.675781 9.9375 -6.34375 C 11.59375 -4.007812 14 -2.84375 17.15625 -2.84375 C 18.988281 -2.84375 20.566406 -3.25 21.890625 -4.0625 C 23.222656 -4.875 24.226562 -5.910156 24.90625 -7.171875 C 25.582031 -8.441406 25.96875 -9.722656 26.0625 -11.015625 L 26.0625 -13.8125 C 26.0625 -14.082031 25.910156 -14.21875 25.609375 -14.21875 L 18.25 -14.21875 C 17.914062 -14.21875 17.75 -14.367188 17.75 -14.671875 L 17.75 -16.625 C 17.75 -16.894531 17.898438 -17.03125 18.203125 -17.03125 L 29.390625 -16.984375 C 29.847656 -16.984375 30.078125 -16.800781 30.078125 -16.4375 L 30.078125 -0.59375 C 30.078125 -0.195312 29.894531 0 29.53125 0 L 28.5 0 C 28.25 0 28.0625 -0.03125 27.9375 -0.09375 C 27.820312 -0.15625 27.738281 -0.304688 27.6875 -0.546875 L 27.1875 -4.734375 C 27.15625 -4.859375 27.097656 -4.921875 27.015625 -4.921875 C 26.941406 -4.921875 26.863281 -4.847656 26.78125 -4.703125 C 25.8125 -3.160156 24.519531 -1.914062 22.90625 -0.96875 C 21.300781 -0.0195312 19.3125 0.453125 16.9375 0.453125 Z M 16.9375 0.453125 "/></g></g></g><g fill="#000000" fill-opacity="1"><g transform="translate(44.01159, 153.045778)"><g><path d="M 28.3125 -0.859375 C 28.34375 -0.796875 28.359375 -0.691406 28.359375 -0.546875 C 28.359375 -0.179688 28.175781 0 27.8125 0 L 24.515625 0 C 24.179688 0 23.941406 -0.179688 23.796875 -0.546875 L 17.96875 -14.765625 C 17.882812 -14.941406 17.765625 -15.078125 17.609375 -15.171875 C 17.460938 -15.265625 17.222656 -15.3125 16.890625 -15.3125 L 9.25 -15.3125 C 8.894531 -15.3125 8.71875 -15.144531 8.71875 -14.8125 L 8.71875 -0.71875 C 8.71875 -0.445312 8.664062 -0.257812 8.5625 -0.15625 C 8.457031 -0.0507812 8.253906 0 7.953125 0 L 5.015625 0 C 4.773438 0 4.609375 -0.0390625 4.515625 -0.125 C 4.421875 -0.21875 4.375 -0.375 4.375 -0.59375 L 4.375 -32.875 C 4.375 -33.113281 4.410156 -33.273438 4.484375 -33.359375 C 4.566406 -33.453125 4.710938 -33.5 4.921875 -33.5 L 17.515625 -33.5 C 21.097656 -33.5 23.867188 -32.757812 25.828125 -31.28125 C 27.785156 -29.8125 28.765625 -27.660156 28.765625 -24.828125 C 28.765625 -22.453125 28.125 -20.535156 26.84375 -19.078125 C 25.5625 -17.617188 24.003906 -16.617188 22.171875 -16.078125 C 22.046875 -16.046875 21.96875 -15.984375 21.9375 -15.890625 C 21.914062 -15.804688 21.929688 -15.71875 21.984375 -15.625 Z M 16.25 -18.421875 C 18.9375 -18.421875 20.941406 -18.898438 22.265625 -19.859375 C 23.585938 -20.828125 24.25 -22.347656 24.25 -24.421875 C 24.25 -26.378906 23.660156 -27.851562 22.484375 -28.84375 C 21.316406 -29.84375 19.585938 -30.34375 17.296875 -30.34375 L 9.34375 -30.34375 C 8.925781 -30.34375 8.71875 -30.175781 8.71875 -29.84375 L 8.71875 -19.015625 C 8.71875 -18.617188 8.851562 -18.421875 9.125 -18.421875 Z M 16.25 -18.421875 "/></g></g></g><g fill="#000000" fill-opacity="1"><g transform="translate(85.133223, 153.045778)"><g><path d="M 17.25 0.453125 C 14.300781 0.453125 11.75 -0.207031 9.59375 -1.53125 C 7.4375 -2.851562 5.785156 -4.796875 4.640625 -7.359375 C 3.503906 -9.921875 2.9375 -13.007812 2.9375 -16.625 C 2.9375 -20.257812 3.515625 -23.378906 4.671875 -25.984375 C 5.828125 -28.585938 7.484375 -30.566406 9.640625 -31.921875 C 11.796875 -33.273438 14.347656 -33.953125 17.296875 -33.953125 C 20.210938 -33.953125 22.742188 -33.273438 24.890625 -31.921875 C 27.046875 -30.566406 28.695312 -28.59375 29.84375 -26 C 30.988281 -23.414062 31.5625 -20.300781 31.5625 -16.65625 C 31.5625 -13.050781 30.988281 -9.96875 29.84375 -7.40625 C 28.695312 -4.84375 27.046875 -2.890625 24.890625 -1.546875 C 22.742188 -0.210938 20.195312 0.453125 17.25 0.453125 Z M 17.34375 -2.84375 C 20.59375 -2.84375 23.019531 -3.972656 24.625 -6.234375 C 26.238281 -8.492188 27.046875 -11.957031 27.046875 -16.625 C 27.046875 -21.375 26.222656 -24.898438 24.578125 -27.203125 C 22.941406 -29.503906 20.515625 -30.65625 17.296875 -30.65625 C 14.015625 -30.65625 11.550781 -29.492188 9.90625 -27.171875 C 8.269531 -24.859375 7.453125 -21.34375 7.453125 -16.625 C 7.453125 -11.957031 8.269531 -8.492188 9.90625 -6.234375 C 11.550781 -3.972656 14.03125 -2.84375 17.34375 -2.84375 Z M 17.34375 -2.84375 "/></g></g></g><g fill="#000000" fill-opacity="1"><g transform="translate(129.324059, 153.045778)"><g><path d="M 28.09375 -11.15625 C 28.09375 -7.175781 27.070312 -4.242188 25.03125 -2.359375 C 23 -0.484375 20 0.453125 16.03125 0.453125 C 11.84375 0.453125 8.785156 -0.550781 6.859375 -2.5625 C 4.929688 -4.582031 3.96875 -7.703125 3.96875 -11.921875 L 3.96875 -32.875 C 3.96875 -33.289062 4.132812 -33.5 4.46875 -33.5 L 7.71875 -33.5 C 8.082031 -33.5 8.265625 -33.304688 8.265625 -32.921875 L 8.265625 -10.96875 C 8.265625 -8.226562 8.929688 -6.195312 10.265625 -4.875 C 11.609375 -3.550781 13.617188 -2.890625 16.296875 -2.890625 C 18.972656 -2.890625 20.992188 -3.554688 22.359375 -4.890625 C 23.734375 -6.234375 24.421875 -8.304688 24.421875 -11.109375 L 24.421875 -32.921875 C 24.421875 -33.304688 24.585938 -33.5 24.921875 -33.5 L 27.59375 -33.5 C 27.925781 -33.5 28.09375 -33.320312 28.09375 -32.96875 Z M 28.09375 -11.15625 "/></g></g></g><g fill="#000000" fill-opacity="1"><g transform="translate(171.032447, 153.045778)"><g><path d="M 28.71875 -23.75 C 28.71875 -20.53125 27.640625 -18.097656 25.484375 -16.453125 C 23.335938 -14.816406 20.441406 -14 16.796875 -14 L 9.125 -14 C 8.851562 -14 8.71875 -13.863281 8.71875 -13.59375 L 8.71875 -0.671875 C 8.71875 -0.222656 8.488281 0 8.03125 0 L 4.96875 0 C 4.570312 0 4.375 -0.195312 4.375 -0.59375 L 4.375 -32.875 C 4.375 -33.113281 4.410156 -33.273438 4.484375 -33.359375 C 4.566406 -33.453125 4.710938 -33.5 4.921875 -33.5 L 16.296875 -33.5 C 20.066406 -33.5 23.078125 -32.691406 25.328125 -31.078125 C 27.585938 -29.472656 28.71875 -27.03125 28.71875 -23.75 Z M 24.296875 -23.890625 C 24.296875 -26.117188 23.585938 -27.726562 22.171875 -28.71875 C 20.753906 -29.707031 18.722656 -30.203125 16.078125 -30.203125 L 9.296875 -30.203125 C 8.910156 -30.203125 8.71875 -30.023438 8.71875 -29.671875 L 8.71875 -17.921875 C 8.71875 -17.679688 8.742188 -17.515625 8.796875 -17.421875 C 8.859375 -17.335938 8.96875 -17.296875 9.125 -17.296875 L 16.390625 -17.296875 C 18.859375 -17.296875 20.789062 -17.84375 22.1875 -18.9375 C 23.59375 -20.039062 24.296875 -21.691406 24.296875 -23.890625 Z M 24.296875 -23.890625 "/></g></g></g></g></g></svg>